<?xml version="1.0" standalone="no"?>
<!DOCTYPE svg PUBLIC "-//W3C//DTD SVG 20010904//EN"
 "http://www.w3.org/TR/2001/REC-SVG-20010904/DTD/svg10.dtd">
<svg version="1.0" xmlns="http://www.w3.org/2000/svg"
 width="16.000000pt" height="16.000000pt" viewBox="0 0 16.000000 16.000000"
 preserveAspectRatio="xMidYMid meet">
<metadata>
Created by potrace 1.11, written by Peter Selinger 2001-2013
</metadata>
<g transform="translate(0.000000,16.000000) scale(0.001559,-0.001559)"
fill="#000000" stroke="none">
<path d="M4859 10226 c-2 -2 -56 -7 -119 -10 -63 -4 -131 -9 -150 -12 -265
-32 -534 -80 -720 -129 -74 -19 -144 -37 -155 -40 -39 -9 -380 -122 -415 -138
-19 -8 -102 -43 -185 -78 -707 -295 -1386 -799 -1906 -1414 -163 -193 -381
-502 -490 -692 -220 -383 -355 -684 -475 -1058 -20 -60 -37 -117 -40 -125 -44
-167 -86 -337 -94 -380 -5 -30 -13 -66 -16 -80 -9 -43 -34 -193 -39 -235 -3
-22 -7 -50 -9 -62 -3 -12 -8 -53 -11 -90 -4 -37 -9 -75 -10 -83 -19 -104 -27
-691 -11 -890 13 -178 16 -207 37 -355 6 -38 12 -86 15 -105 2 -19 7 -48 11
-65 3 -16 7 -40 9 -52 1 -12 5 -34 8 -50 4 -15 8 -38 11 -51 2 -13 6 -31 9
-40 3 -9 8 -33 11 -52 32 -191 185 -667 294 -915 27 -59 34 -78 36 -95 1 -9
18 -44 38 -78 20 -35 37 -67 37 -72 0 -5 13 -24 28 -42 16 -18 35 -49 42 -68
49 -124 311 -558 353 -584 18 -11 325 -13 1762 -11 957 2 1749 5 1760 8 11 2
45 8 75 11 293 34 654 166 910 334 62 41 189 131 206 147 6 5 39 34 73 64 373
326 655 766 816 1271 54 168 67 218 91 350 3 14 7 32 9 40 3 8 7 32 11 54 3
21 7 47 9 58 2 11 7 47 10 81 4 34 10 94 14 132 4 39 9 166 10 283 l2 214 60
81 c69 94 131 216 153 299 20 79 17 217 -6 303 -26 91 -86 204 -149 277 -61
70 -173 146 -265 181 -443 168 -942 -166 -942 -630 0 -146 57 -297 174 -458
l58 -80 0 -150 c-1 -174 -12 -348 -29 -435 -3 -14 -8 -43 -11 -65 -11 -74 -54
-249 -84 -336 -154 -461 -411 -800 -752 -996 -138 -80 -317 -142 -453 -158
-27 -3 -66 -8 -85 -11 -47 -7 -2947 -7 -2958 0 -11 6 -139 264 -188 377 -157
362 -280 804 -333 1189 -19 143 -23 182 -36 355 -8 107 -8 431 0 527 3 43 8
102 10 130 2 29 6 69 9 88 3 19 8 57 11 84 3 27 7 59 10 70 2 12 7 37 9 56 33
231 121 548 232 834 246 632 670 1221 1212 1679 165 139 446 337 607 427 33
18 76 42 95 53 72 41 249 126 355 171 61 26 119 51 130 56 129 55 518 173 638
194 15 3 35 7 45 10 9 3 35 7 57 11 22 3 47 7 55 10 18 5 207 34 268 40 23 3
62 7 87 10 227 24 643 24 830 -1 17 -2 48 -6 70 -8 22 -3 72 -10 110 -16 39
-6 86 -13 105 -16 85 -10 386 -86 538 -135 345 -112 700 -284 1010 -490 l43
-29 672 0 672 0 -125 123 c-184 179 -319 298 -500 438 -93 72 -125 95 -276
198 -372 254 -815 473 -1234 609 -92 30 -259 80 -290 87 -8 1 -35 8 -60 15
-25 7 -56 14 -70 17 -14 2 -41 8 -60 13 -19 5 -51 12 -70 15 -19 3 -42 8 -50
10 -8 2 -31 6 -50 9 -19 3 -46 8 -60 10 -52 10 -238 35 -300 41 -36 4 -85 9
-110 12 -53 6 -625 14 -631 9z"/>
<path d="M5917 8024 c-1 -1 -58 -4 -128 -8 -69 -3 -134 -8 -145 -10 -10 -2
-44 -7 -74 -10 -57 -7 -63 -8 -170 -26 -142 -25 -383 -90 -500 -135 -321 -123
-547 -243 -765 -408 -467 -352 -786 -821 -919 -1352 -53 -214 -58 -277 -63
-780 l-5 -469 -37 -36 c-208 -197 -269 -537 -142 -788 141 -278 444 -433 736
-375 93 19 102 22 165 51 315 149 464 524 339 856 -26 71 -84 159 -145 222
l-49 51 1 414 c1 372 5 474 19 550 3 13 7 41 11 63 9 63 69 237 109 317 154
305 411 545 769 719 213 103 454 177 686 209 41 6 93 14 115 17 22 3 723 7
1558 9 l1518 2 14 -21 c47 -73 183 -339 224 -436 13 -30 33 -77 46 -105 21
-46 74 -190 109 -295 19 -58 83 -300 96 -365 5 -27 11 -59 13 -70 18 -83 43
-279 54 -410 14 -171 7 -580 -12 -745 -36 -309 -83 -539 -165 -810 -22 -74
-45 -143 -50 -152 -6 -10 -10 -23 -10 -30 0 -7 -6 -25 -14 -39 -7 -14 -16 -38
-20 -53 -4 -16 -15 -47 -26 -70 -10 -22 -31 -70 -45 -106 -27 -66 -170 -356
-185 -375 -4 -5 -22 -37 -40 -70 -18 -33 -83 -136 -146 -230 -566 -850 -1419
-1471 -2388 -1739 -173 -48 -343 -86 -451 -101 -22 -3 -47 -8 -55 -10 -8 -2
-35 -6 -60 -9 -25 -3 -70 -8 -100 -12 -30 -3 -75 -8 -100 -11 -84 -9 -664 -11
-745 -3 -44 4 -113 11 -153 15 -40 3 -80 8 -90 10 -10 2 -45 6 -77 10 -33 4
-69 9 -80 11 -10 2 -37 6 -60 10 -22 3 -44 7 -50 8 -5 2 -28 6 -50 10 -221 43
-550 139 -765 226 -140 56 -364 164 -475 230 l-90 54 -677 1 c-373 0 -678 -1
-678 -4 0 -2 13 -16 29 -30 104 -94 196 -178 205 -186 12 -11 141 -119 166
-139 163 -127 403 -291 540 -368 25 -14 63 -35 85 -48 337 -191 905 -410 1234
-476 12 -3 53 -12 90 -20 36 -9 77 -18 91 -20 14 -3 70 -13 125 -24 55 -10
125 -21 155 -25 30 -3 62 -8 70 -10 14 -4 35 -7 165 -20 233 -25 338 -30 645
-30 255 0 455 8 517 19 10 2 50 7 88 10 39 4 80 8 90 10 11 2 43 7 70 10 58 8
199 32 265 46 25 5 56 12 70 14 52 8 284 68 397 102 481 145 951 365 1358 637
120 80 345 245 420 308 92 79 204 177 254 224 64 59 49 45 187 186 492 507
881 1128 1114 1779 69 192 146 451 164 553 3 15 8 37 11 48 4 12 8 31 10 42 2
12 12 69 23 127 12 58 26 141 32 185 6 44 13 90 15 102 2 12 7 57 10 100 4 43
9 86 11 97 21 115 21 693 0 871 -2 17 -7 62 -11 100 -3 39 -8 81 -10 95 -2 14
-7 45 -10 70 -54 394 -185 841 -364 1248 -22 51 -40 96 -39 100 1 4 -19 47
-46 95 -26 48 -56 110 -66 137 -15 41 -50 107 -101 190 -5 8 -15 30 -23 47
-51 112 -258 442 -279 444 -19 1 -3339 4 -3340 3z"/>
</g>
</svg>
